<?xml version="1.0" encoding="utf-8" standalone="no"?>
<!DOCTYPE svg PUBLIC "-//W3C//DTD SVG 1.1//EN"
  "http://www.w3.org/Graphics/SVG/1.1/DTD/svg11.dtd">
<svg xmlns:xlink="http://www.w3.org/1999/xlink" width="263.385938pt" height="161.82pt" viewBox="0 0 263.385938 161.82" xmlns="http://www.w3.org/2000/svg" version="1.1">
 <metadata>
  <rdf:RDF xmlns:dc="http://purl.org/dc/elements/1.1/" xmlns:cc="http://creativecommons.org/ns#" xmlns:rdf="http://www.w3.org/1999/02/22-rdf-syntax-ns#">
   <cc:Work>
    <dc:type rdf:resource="http://purl.org/dc/dcmitype/StillImage"/>
    <dc:date>2024-07-02T12:29:59.961907</dc:date>
    <dc:format>image/svg+xml</dc:format>
    <dc:creator>
     <cc:Agent>
      <dc:title>Matplotlib v3.7.1, https://matplotlib.org/</dc:title>
     </cc:Agent>
    </dc:creator>
   </cc:Work>
  </rdf:RDF>
 </metadata>
 <defs>
  <style type="text/css">*{stroke-linejoin: round; stroke-linecap: butt}</style>
 </defs>
 <g id="figure_1">
  <g id="patch_1">
   <path d="M 0 161.82 
L 263.385938 161.82 
L 263.385938 0 
L 0 0 
L 0 161.82 
z
" style="fill: none"/>
  </g>
  <g id="axes_1">
   <g id="line2d_1">
    <path d="M 111.229688 57.6 
L 140.543973 57.500816 
L 142.858259 57.203265 
L 145.172545 56.707347 
L 147.48683 56.013061 
L 149.801116 55.120408 
L 152.115402 54.029388 
L 154.429688 52.74 
L 156.743973 51.252245 
L 159.829688 48.96 
L 162.915402 46.315102 
L 166.001116 43.317551 
L 169.08683 39.967347 
L 172.172545 36.26449 
L 175.258259 32.20898 
L 176.029688 31.14 
L 176.029688 31.14 
L 172.943973 26.996327 
L 169.858259 23.205306 
L 166.772545 19.766939 
L 163.68683 16.681224 
L 160.601116 13.948163 
L 157.515402 11.567755 
L 154.429688 9.54 
L 152.115402 8.250612 
L 149.801116 7.159592 
L 147.48683 6.266939 
L 145.172545 5.572653 
L 142.858259 5.076735 
L 140.543973 4.779184 
L 138.229688 4.68 
L 111.229688 4.68 
L 111.229688 4.68 
L 114.210487 7.92 
L 116.802488 11.16 
L 119.005688 14.4 
L 120.258488 16.56 
L 121.338488 18.72 
L 122.245688 20.88 
L 122.980088 23.04 
L 123.541688 25.2 
L 123.930488 27.36 
L 124.146488 29.52 
L 124.189688 31.68 
L 124.060088 33.84 
L 123.757688 36 
L 123.282488 38.16 
L 122.634488 40.32 
L 121.813688 42.48 
L 120.820088 44.64 
L 119.653688 46.8 
L 118.314488 48.96 
L 115.981688 52.2 
L 113.260088 55.44 
L 111.229688 57.6 
L 111.229688 57.6 
" clip-path="url(#p61c0ce7cfa)" style="fill: none; stroke: #000000; stroke-width: 2; stroke-linecap: round"/>
   </g>
   <g id="line2d_2">
    <path d="M 103.129688 57.6 
L 104.166488 56.52 
L 105.160088 55.44 
L 106.110488 54.36 
L 107.017688 53.28 
L 107.881688 52.2 
L 108.702488 51.12 
L 109.480088 50.04 
L 110.214488 48.96 
L 110.905688 47.88 
L 111.553688 46.8 
L 112.158488 45.72 
L 112.720088 44.64 
L 113.238488 43.56 
L 113.713688 42.48 
L 114.145688 41.4 
L 114.534488 40.32 
L 114.880088 39.24 
L 115.182488 38.16 
L 115.441688 37.08 
L 115.657688 36 
L 115.830488 34.92 
L 115.960088 33.84 
L 116.046488 32.76 
L 116.089688 31.68 
L 116.089688 30.6 
L 116.046488 29.52 
L 115.960088 28.44 
L 115.830488 27.36 
L 115.657688 26.28 
L 115.441688 25.2 
L 115.182488 24.12 
L 114.880088 23.04 
L 114.534488 21.96 
L 114.145688 20.88 
L 113.713688 19.8 
L 113.238488 18.72 
L 112.720088 17.64 
L 112.158488 16.56 
L 111.553688 15.48 
L 110.905688 14.4 
L 110.214488 13.32 
L 109.480088 12.24 
L 108.702488 11.16 
L 107.881688 10.08 
L 107.017688 9 
L 106.110488 7.92 
L 105.160088 6.84 
L 104.166488 5.76 
L 103.129688 4.68 
" clip-path="url(#p61c0ce7cfa)" style="fill: none; stroke: #000000; stroke-width: 2; stroke-linecap: round"/>
   </g>
   <g id="line2d_3">
    <path d="M 92.329688 44.64 
L 112.720088 44.64 
" clip-path="url(#p61c0ce7cfa)" style="fill: none; stroke: #000000; stroke-width: 2; stroke-linecap: round"/>
   </g>
   <g id="line2d_4">
    <path d="M 92.329688 17.64 
L 112.720088 17.64 
" clip-path="url(#p61c0ce7cfa)" style="fill: none; stroke: #000000; stroke-width: 2; stroke-linecap: round"/>
   </g>
   <g id="line2d_5">
    <path d="M 176.029688 31.14 
L 194.929688 31.14 
" clip-path="url(#p61c0ce7cfa)" style="fill: none; stroke: #000000; stroke-width: 2; stroke-linecap: round"/>
   </g>
   <g id="line2d_6">
    <path d="M 92.329688 17.64 
L 74.329688 17.64 
L 56.329688 17.64 
" clip-path="url(#p61c0ce7cfa)" style="fill: none; stroke: #000000; stroke-width: 2; stroke-linecap: round"/>
   </g>
   <g id="line2d_7">
    <path d="M 92.329688 44.64 
L 83.329688 44.64 
L 74.329688 44.64 
" clip-path="url(#p61c0ce7cfa)" style="fill: none; stroke: #000000; stroke-width: 2; stroke-linecap: round"/>
   </g>
   <g id="line2d_8">
    <path d="M 74.329688 44.64 
L 65.329688 44.64 
L 56.329688 44.64 
" clip-path="url(#p61c0ce7cfa)" style="fill: none; stroke: #000000; stroke-width: 2; stroke-linecap: round"/>
   </g>
   <g id="line2d_9">
    <path d="M 92.329688 17.64 
L 92.329687 67.14 
L 92.329687 116.64 
" clip-path="url(#p61c0ce7cfa)" style="fill: none; stroke: #000000; stroke-width: 2; stroke-linecap: round"/>
   </g>
   <g id="line2d_10">
    <path d="M 146.329687 157.14 
L 148.059583 157.084526 
L 149.782371 156.91833 
L 151.49097 156.642097 
L 153.178361 156.256961 
L 154.837609 155.764505 
L 156.461897 155.166752 
L 158.044548 154.466159 
L 159.579061 153.665605 
L 161.05913 152.768379 
L 162.478672 151.778168 
L 163.831854 150.699041 
L 165.113116 149.535432 
L 166.317193 148.292124 
L 167.439138 146.974225 
L 168.474338 145.58715 
L 169.418542 144.136599 
L 170.267869 142.628534 
L 171.018828 141.06915 
L 171.668335 139.464856 
L 172.21372 137.822245 
L 172.652741 136.148065 
L 172.983596 134.449197 
L 173.204924 132.732622 
L 173.315815 131.005393 
L 173.315815 129.274607 
L 173.204924 127.547378 
L 172.983596 125.830803 
L 172.652741 124.131935 
L 172.21372 122.457755 
L 171.668335 120.815144 
L 171.018828 119.21085 
L 170.267869 117.651466 
L 169.418542 116.143401 
L 168.474338 114.69285 
L 167.439138 113.305775 
L 166.317193 111.987876 
L 165.113116 110.744568 
L 163.831854 109.580959 
L 162.478672 108.501832 
L 161.05913 107.511621 
L 159.579061 106.614395 
L 158.044548 105.813841 
L 156.461897 105.113248 
L 154.837609 104.515495 
L 153.178361 104.023039 
L 151.49097 103.637903 
L 149.782371 103.36167 
L 148.059583 103.195474 
L 146.329687 103.14 
L 146.329687 103.14 
L 111.229687 103.14 
L 111.229687 130.14 
L 111.229687 157.14 
L 146.329687 157.14 
" clip-path="url(#p61c0ce7cfa)" style="fill: none; stroke: #000000; stroke-width: 2; stroke-linecap: round"/>
   </g>
   <g id="line2d_11">
    <path d="M 92.329687 143.64 
L 111.229687 143.64 
" clip-path="url(#p61c0ce7cfa)" style="fill: none; stroke: #000000; stroke-width: 2; stroke-linecap: round"/>
   </g>
   <g id="line2d_12">
    <path d="M 92.329687 116.64 
L 111.229687 116.64 
" clip-path="url(#p61c0ce7cfa)" style="fill: none; stroke: #000000; stroke-width: 2; stroke-linecap: round"/>
   </g>
   <g id="line2d_13">
    <path d="M 173.329687 130.14 
L 192.229688 130.14 
" clip-path="url(#p61c0ce7cfa)" style="fill: none; stroke: #000000; stroke-width: 2; stroke-linecap: round"/>
   </g>
   <g id="line2d_14">
    <path d="M 74.329688 44.64 
L 74.329688 143.64 
L 92.329687 143.64 
" clip-path="url(#p61c0ce7cfa)" style="fill: none; stroke: #000000; stroke-width: 2; stroke-linecap: round"/>
   </g>
   <g id="text_1">
    <!-- sum -->
    <g transform="translate(200.329688 35.003125) scale(0.14 -0.14)">
     <defs>
      <path id="DejaVuSans-73" d="M 2834 3397 
L 2834 2853 
Q 2591 2978 2328 3040 
Q 2066 3103 1784 3103 
Q 1356 3103 1142 2972 
Q 928 2841 928 2578 
Q 928 2378 1081 2264 
Q 1234 2150 1697 2047 
L 1894 2003 
Q 2506 1872 2764 1633 
Q 3022 1394 3022 966 
Q 3022 478 2636 193 
Q 2250 -91 1575 -91 
Q 1294 -91 989 -36 
Q 684 19 347 128 
L 347 722 
Q 666 556 975 473 
Q 1284 391 1588 391 
Q 1994 391 2212 530 
Q 2431 669 2431 922 
Q 2431 1156 2273 1281 
Q 2116 1406 1581 1522 
L 1381 1569 
Q 847 1681 609 1914 
Q 372 2147 372 2553 
Q 372 3047 722 3315 
Q 1072 3584 1716 3584 
Q 2034 3584 2315 3537 
Q 2597 3491 2834 3397 
z
" transform="scale(0.015625)"/>
      <path id="DejaVuSans-75" d="M 544 1381 
L 544 3500 
L 1119 3500 
L 1119 1403 
Q 1119 906 1312 657 
Q 1506 409 1894 409 
Q 2359 409 2629 706 
Q 2900 1003 2900 1516 
L 2900 3500 
L 3475 3500 
L 3475 0 
L 2900 0 
L 2900 538 
Q 2691 219 2414 64 
Q 2138 -91 1772 -91 
Q 1169 -91 856 284 
Q 544 659 544 1381 
z
M 1991 3584 
L 1991 3584 
z
" transform="scale(0.015625)"/>
      <path id="DejaVuSans-6d" d="M 3328 2828 
Q 3544 3216 3844 3400 
Q 4144 3584 4550 3584 
Q 5097 3584 5394 3201 
Q 5691 2819 5691 2113 
L 5691 0 
L 5113 0 
L 5113 2094 
Q 5113 2597 4934 2840 
Q 4756 3084 4391 3084 
Q 3944 3084 3684 2787 
Q 3425 2491 3425 1978 
L 3425 0 
L 2847 0 
L 2847 2094 
Q 2847 2600 2669 2842 
Q 2491 3084 2119 3084 
Q 1678 3084 1418 2786 
Q 1159 2488 1159 1978 
L 1159 0 
L 581 0 
L 581 3500 
L 1159 3500 
L 1159 2956 
Q 1356 3278 1631 3431 
Q 1906 3584 2284 3584 
Q 2666 3584 2933 3390 
Q 3200 3197 3328 2828 
z
" transform="scale(0.015625)"/>
     </defs>
     <use xlink:href="#DejaVuSans-73"/>
     <use xlink:href="#DejaVuSans-75" x="52.099609"/>
     <use xlink:href="#DejaVuSans-6d" x="115.478516"/>
    </g>
   </g>
   <g id="patch_2">
    <path d="M 92.329688 20.34 
C 93.045736 20.34 93.732553 20.055511 94.238876 19.549188 
C 94.745198 19.042866 95.029688 18.356048 95.029688 17.64 
C 95.029688 16.923952 94.745198 16.237134 94.238876 15.730812 
C 93.732553 15.224489 93.045736 14.94 92.329688 14.94 
C 91.613639 14.94 90.926822 15.224489 90.420499 15.730812 
C 89.914177 16.237134 89.629688 16.923952 89.629688 17.64 
C 89.629688 18.356048 89.914177 19.042866 90.420499 19.549188 
C 90.926822 20.055511 91.613639 20.34 92.329688 20.34 
z
" clip-path="url(#p61c0ce7cfa)" style="stroke: #000000; stroke-width: 2; stroke-linejoin: miter"/>
   </g>
   <g id="text_2">
    <!-- augend -->
    <g transform="translate(0.015313 21.503125) scale(0.14 -0.14)">
     <defs>
      <path id="DejaVuSans-61" d="M 2194 1759 
Q 1497 1759 1228 1600 
Q 959 1441 959 1056 
Q 959 750 1161 570 
Q 1363 391 1709 391 
Q 2188 391 2477 730 
Q 2766 1069 2766 1631 
L 2766 1759 
L 2194 1759 
z
M 3341 1997 
L 3341 0 
L 2766 0 
L 2766 531 
Q 2569 213 2275 61 
Q 1981 -91 1556 -91 
Q 1019 -91 701 211 
Q 384 513 384 1019 
Q 384 1609 779 1909 
Q 1175 2209 1959 2209 
L 2766 2209 
L 2766 2266 
Q 2766 2663 2505 2880 
Q 2244 3097 1772 3097 
Q 1472 3097 1187 3025 
Q 903 2953 641 2809 
L 641 3341 
Q 956 3463 1253 3523 
Q 1550 3584 1831 3584 
Q 2591 3584 2966 3190 
Q 3341 2797 3341 1997 
z
" transform="scale(0.015625)"/>
      <path id="DejaVuSans-67" d="M 2906 1791 
Q 2906 2416 2648 2759 
Q 2391 3103 1925 3103 
Q 1463 3103 1205 2759 
Q 947 2416 947 1791 
Q 947 1169 1205 825 
Q 1463 481 1925 481 
Q 2391 481 2648 825 
Q 2906 1169 2906 1791 
z
M 3481 434 
Q 3481 -459 3084 -895 
Q 2688 -1331 1869 -1331 
Q 1566 -1331 1297 -1286 
Q 1028 -1241 775 -1147 
L 775 -588 
Q 1028 -725 1275 -790 
Q 1522 -856 1778 -856 
Q 2344 -856 2625 -561 
Q 2906 -266 2906 331 
L 2906 616 
Q 2728 306 2450 153 
Q 2172 0 1784 0 
Q 1141 0 747 490 
Q 353 981 353 1791 
Q 353 2603 747 3093 
Q 1141 3584 1784 3584 
Q 2172 3584 2450 3431 
Q 2728 3278 2906 2969 
L 2906 3500 
L 3481 3500 
L 3481 434 
z
" transform="scale(0.015625)"/>
      <path id="DejaVuSans-65" d="M 3597 1894 
L 3597 1613 
L 953 1613 
Q 991 1019 1311 708 
Q 1631 397 2203 397 
Q 2534 397 2845 478 
Q 3156 559 3463 722 
L 3463 178 
Q 3153 47 2828 -22 
Q 2503 -91 2169 -91 
Q 1331 -91 842 396 
Q 353 884 353 1716 
Q 353 2575 817 3079 
Q 1281 3584 2069 3584 
Q 2775 3584 3186 3129 
Q 3597 2675 3597 1894 
z
M 3022 2063 
Q 3016 2534 2758 2815 
Q 2500 3097 2075 3097 
Q 1594 3097 1305 2825 
Q 1016 2553 972 2059 
L 3022 2063 
z
" transform="scale(0.015625)"/>
      <path id="DejaVuSans-6e" d="M 3513 2113 
L 3513 0 
L 2938 0 
L 2938 2094 
Q 2938 2591 2744 2837 
Q 2550 3084 2163 3084 
Q 1697 3084 1428 2787 
Q 1159 2491 1159 1978 
L 1159 0 
L 581 0 
L 581 3500 
L 1159 3500 
L 1159 2956 
Q 1366 3272 1645 3428 
Q 1925 3584 2291 3584 
Q 2894 3584 3203 3211 
Q 3513 2838 3513 2113 
z
" transform="scale(0.015625)"/>
      <path id="DejaVuSans-64" d="M 2906 2969 
L 2906 4863 
L 3481 4863 
L 3481 0 
L 2906 0 
L 2906 525 
Q 2725 213 2448 61 
Q 2172 -91 1784 -91 
Q 1150 -91 751 415 
Q 353 922 353 1747 
Q 353 2572 751 3078 
Q 1150 3584 1784 3584 
Q 2172 3584 2448 3432 
Q 2725 3281 2906 2969 
z
M 947 1747 
Q 947 1113 1208 752 
Q 1469 391 1925 391 
Q 2381 391 2643 752 
Q 2906 1113 2906 1747 
Q 2906 2381 2643 2742 
Q 2381 3103 1925 3103 
Q 1469 3103 1208 2742 
Q 947 2381 947 1747 
z
" transform="scale(0.015625)"/>
     </defs>
     <use xlink:href="#DejaVuSans-61"/>
     <use xlink:href="#DejaVuSans-75" x="61.279297"/>
     <use xlink:href="#DejaVuSans-67" x="124.658203"/>
     <use xlink:href="#DejaVuSans-65" x="188.134766"/>
     <use xlink:href="#DejaVuSans-6e" x="249.658203"/>
     <use xlink:href="#DejaVuSans-64" x="313.037109"/>
    </g>
   </g>
   <g id="patch_3">
    <path d="M 74.329688 47.34 
C 75.045736 47.34 75.732553 47.055511 76.238876 46.549188 
C 76.745198 46.042866 77.029688 45.356048 77.029688 44.64 
C 77.029688 43.923952 76.745198 43.237134 76.238876 42.730812 
C 75.732553 42.224489 75.045736 41.94 74.329688 41.94 
C 73.613639 41.94 72.926822 42.224489 72.420499 42.730812 
C 71.914177 43.237134 71.629688 43.923952 71.629688 44.64 
C 71.629688 45.356048 71.914177 46.042866 72.420499 46.549188 
C 72.926822 47.055511 73.613639 47.34 74.329688 47.34 
z
" clip-path="url(#p61c0ce7cfa)" style="stroke: #000000; stroke-width: 2; stroke-linejoin: miter"/>
   </g>
   <g id="text_3">
    <!-- addend -->
    <g transform="translate(0 48.503125) scale(0.14 -0.14)">
     <use xlink:href="#DejaVuSans-61"/>
     <use xlink:href="#DejaVuSans-64" x="61.279297"/>
     <use xlink:href="#DejaVuSans-64" x="124.755859"/>
     <use xlink:href="#DejaVuSans-65" x="188.232422"/>
     <use xlink:href="#DejaVuSans-6e" x="249.755859"/>
     <use xlink:href="#DejaVuSans-64" x="313.134766"/>
    </g>
   </g>
   <g id="text_4">
    <!-- carry_out -->
    <g transform="translate(197.629687 133.61375) scale(0.14 -0.14)">
     <defs>
      <path id="DejaVuSans-63" d="M 3122 3366 
L 3122 2828 
Q 2878 2963 2633 3030 
Q 2388 3097 2138 3097 
Q 1578 3097 1268 2742 
Q 959 2388 959 1747 
Q 959 1106 1268 751 
Q 1578 397 2138 397 
Q 2388 397 2633 464 
Q 2878 531 3122 666 
L 3122 134 
Q 2881 22 2623 -34 
Q 2366 -91 2075 -91 
Q 1284 -91 818 406 
Q 353 903 353 1747 
Q 353 2603 823 3093 
Q 1294 3584 2113 3584 
Q 2378 3584 2631 3529 
Q 2884 3475 3122 3366 
z
" transform="scale(0.015625)"/>
      <path id="DejaVuSans-72" d="M 2631 2963 
Q 2534 3019 2420 3045 
Q 2306 3072 2169 3072 
Q 1681 3072 1420 2755 
Q 1159 2438 1159 1844 
L 1159 0 
L 581 0 
L 581 3500 
L 1159 3500 
L 1159 2956 
Q 1341 3275 1631 3429 
Q 1922 3584 2338 3584 
Q 2397 3584 2469 3576 
Q 2541 3569 2628 3553 
L 2631 2963 
z
" transform="scale(0.015625)"/>
      <path id="DejaVuSans-79" d="M 2059 -325 
Q 1816 -950 1584 -1140 
Q 1353 -1331 966 -1331 
L 506 -1331 
L 506 -850 
L 844 -850 
Q 1081 -850 1212 -737 
Q 1344 -625 1503 -206 
L 1606 56 
L 191 3500 
L 800 3500 
L 1894 763 
L 2988 3500 
L 3597 3500 
L 2059 -325 
z
" transform="scale(0.015625)"/>
      <path id="DejaVuSans-5f" d="M 3263 -1063 
L 3263 -1509 
L -63 -1509 
L -63 -1063 
L 3263 -1063 
z
" transform="scale(0.015625)"/>
      <path id="DejaVuSans-6f" d="M 1959 3097 
Q 1497 3097 1228 2736 
Q 959 2375 959 1747 
Q 959 1119 1226 758 
Q 1494 397 1959 397 
Q 2419 397 2687 759 
Q 2956 1122 2956 1747 
Q 2956 2369 2687 2733 
Q 2419 3097 1959 3097 
z
M 1959 3584 
Q 2709 3584 3137 3096 
Q 3566 2609 3566 1747 
Q 3566 888 3137 398 
Q 2709 -91 1959 -91 
Q 1206 -91 779 398 
Q 353 888 353 1747 
Q 353 2609 779 3096 
Q 1206 3584 1959 3584 
z
" transform="scale(0.015625)"/>
      <path id="DejaVuSans-74" d="M 1172 4494 
L 1172 3500 
L 2356 3500 
L 2356 3053 
L 1172 3053 
L 1172 1153 
Q 1172 725 1289 603 
Q 1406 481 1766 481 
L 2356 481 
L 2356 0 
L 1766 0 
Q 1100 0 847 248 
Q 594 497 594 1153 
L 594 3053 
L 172 3053 
L 172 3500 
L 594 3500 
L 594 4494 
L 1172 4494 
z
" transform="scale(0.015625)"/>
     </defs>
     <use xlink:href="#DejaVuSans-63"/>
     <use xlink:href="#DejaVuSans-61" x="54.980469"/>
     <use xlink:href="#DejaVuSans-72" x="116.259766"/>
     <use xlink:href="#DejaVuSans-72" x="155.623047"/>
     <use xlink:href="#DejaVuSans-79" x="196.736328"/>
     <use xlink:href="#DejaVuSans-5f" x="255.916016"/>
     <use xlink:href="#DejaVuSans-6f" x="305.916016"/>
     <use xlink:href="#DejaVuSans-75" x="367.097656"/>
     <use xlink:href="#DejaVuSans-74" x="430.476562"/>
    </g>
   </g>
  </g>
 </g>
 <defs>
  <clipPath id="p61c0ce7cfa">
   <rect x="0.169688" y="-0" width="262.62" height="161.82"/>
  </clipPath>
 </defs>
</svg>
